<svg width="43" height="30" viewBox="0 0 43 30" fill="none" xmlns="http://www.w3.org/2000/svg">
<path fill-rule="evenodd" clip-rule="evenodd" d="M0.125 2.75C0.125 1.30025 1.30025 0.125 2.75 0.125C4.19975 0.125 5.375 1.30025 5.375 2.75C5.375 4.19975 4.19975 5.375 2.75 5.375C1.30025 5.375 0.125 4.19975 0.125 2.75ZM11.5 2.75C11.5 1.7835 12.2835 1 13.25 1H41.25C42.2165 1 43 1.7835 43 2.75C43 3.7165 42.2165 4.5 41.25 4.5H13.25C12.2835 4.5 11.5 3.7165 11.5 2.75ZM0.125 15C0.125 13.5503 1.30025 12.375 2.75 12.375C4.19975 12.375 5.375 13.5503 5.375 15C5.375 16.4497 4.19975 17.625 2.75 17.625C1.30025 17.625 0.125 16.4497 0.125 15ZM11.5 15C11.5 14.0335 12.2835 13.25 13.25 13.25H41.25C42.2165 13.25 43 14.0335 43 15C43 15.9665 42.2165 16.75 41.25 16.75H13.25C12.2835 16.75 11.5 15.9665 11.5 15ZM0.125 27.25C0.125 25.8003 1.30025 24.625 2.75 24.625C4.19975 24.625 5.375 25.8003 5.375 27.25C5.375 28.6997 4.19975 29.875 2.75 29.875C1.30025 29.875 0.125 28.6997 0.125 27.25ZM11.5 27.25C11.5 26.2835 12.2835 25.5 13.25 25.5H41.25C42.2165 25.5 43 26.2835 43 27.25C43 28.2165 42.2165 29 41.25 29H13.25C12.2835 29 11.5 28.2165 11.5 27.25Z" fill="#0034EE"/>
</svg>
